<?xml version="1.0" encoding="utf-8"?>
<!-- Generator: Adobe Illustrator 25.0.0, SVG Export Plug-In . SVG Version: 6.00 Build 0)  -->
<svg version="1.1" id="Capa_1" xmlns="http://www.w3.org/2000/svg" xmlns:xlink="http://www.w3.org/1999/xlink" x="0px" y="0px"
	 viewBox="0 0 744.8 653" style="enable-background:new 0 0 744.8 653;" xml:space="preserve">
<style type="text/css">
	.st0{fill:#2D3E50;}
	.st1{opacity:5.000000e-02;enable-background:new    ;}
	.st2{fill:#FF8879;}
	.st3{fill:url(#SVGID_1_);}
	.st4{fill:url(#SVGID_2_);}
	.st5{opacity:0.1;enable-background:new    ;}
	.st6{fill:#FFBD99;}
	.st7{opacity:0.4;enable-background:new    ;}
	.st8{opacity:0.2;enable-background:new    ;}
	.st9{fill:#315271;}
	.st10{opacity:0.3;enable-background:new    ;}
	.st11{fill:#EDEDEF;}
	.st12{fill:#6885A5;}
	.st13{fill:url(#SVGID_3_);}
	.st14{fill:url(#SVGID_4_);}
	.st15{fill:none;stroke:#0F2572;stroke-width:0.1758;stroke-miterlimit:10;}
	.st16{fill:url(#SVGID_5_);}
	.st17{fill:#FFFFFF;}
	.st18{fill:#97AACF;}
	.st19{fill:#454545;}
	.st20{fill:#666666;}
	.st21{fill:#242424;}
	.st22{fill:url(#SVGID_6_);}
	.st23{fill:url(#SVGID_7_);}
	.st24{fill:url(#SVGID_8_);}
	.st25{fill:url(#SVGID_9_);}
	.st26{fill:url(#SVGID_10_);}
	.st27{fill:url(#SVGID_11_);}
	.st28{fill:url(#SVGID_12_);}
	.st29{fill:url(#SVGID_13_);}
	.st30{fill:url(#SVGID_14_);}
	.st31{fill:#232B2B;}
	.st32{fill:#455757;}
	.st33{fill:#688282;}
	.st34{fill:#8AAEAE;}
	.st35{fill:#ADD9D9;}
	.st36{fill:url(#SVGID_15_);}
	.st37{fill:url(#SVGID_16_);}
	.st38{fill:url(#SVGID_17_);}
	.st39{fill:url(#SVGID_18_);}
	.st40{fill:url(#SVGID_19_);}
</style>
<path class="st0" d="M2419.6,493.1L2419.6,493.1c1.6,0,2.9-1.3,2.9-2.9V82.5c0-1.6-1.3-2.9-2.9-2.9l0,0c-1.6,0-2.9,1.3-2.9,2.9
	v407.7C2416.7,491.8,2418,493.1,2419.6,493.1z"/>
<g>
	<g>
		<path class="st1" d="M2749,1574.3c-48,24.5-134.4-1.5-179.5-44.9s-79.3-84.8-17.3-103.7c41.4-12.6,113.8-5.7,148-28.1
			C2734.4,1375.3,2797,1549.8,2749,1574.3z"/>
		<path class="st2" d="M2687.7,1327.8c-43.4,0-42.2,37.8-62,96s-35.1,98.2,3.8,135.5c38.9,37.3,129.2,37.3,184.8,8.8
			c55.7-28.5,64.7-67.8,45-106.3s-82.3-44.5-108.6-75.8C2724.4,1354.7,2733.2,1327.8,2687.7,1327.8z"/>

			<linearGradient id="SVGID_1_" gradientUnits="userSpaceOnUse" x1="2647.2019" y1="-681.4499" x2="2868.771" y2="-681.4499" gradientTransform="matrix(1 0 0 -1 0 740.2803)">
			<stop  offset="1.074735e-03" style="stop-color:#4FD0F0"/>
			<stop  offset="1" style="stop-color:#4E5DEB"/>
		</linearGradient>
		<path class="st3" d="M2690.9,1329.8c3.4-0.8,6.8-1,10-1c30.8,5,26.5,29.4,49.9,57.2c26.3,31.3,88.9,37.3,108.6,75.8
			c5.6,10.9,8.8,21.8,9.4,32.5c-10.8,12.3-25.9,19.9-40.1,20.4l-0.1-0.2c-23.1-4.7-40.4-9.5-15.4-31c24.9-21.5,30.1-44.7,5.2-47.6
			c-24.9-2.9-74.4,37.8-78.6,4.9c-4.2-33-23.5-100.9-37.8-107C2697.6,1332,2694,1330.7,2690.9,1329.8z M2684.9,1444.6
			c-1-7.8-9.2,2.1-23.7-10.5c-11.1-9.7-4.8-45.3-1.6-68.6c-9.9,27.7-18.6,70.5-6.6,92.7c6.1,11.2,17.9,18.3,31.6,24.3
			C2677.8,1467.5,2685.6,1450.3,2684.9,1444.6z"/>

			<linearGradient id="SVGID_2_" gradientUnits="userSpaceOnUse" x1="2605.3997" y1="-717.8361" x2="2868.8662" y2="-717.8361" gradientTransform="matrix(1 0 0 -1 0 740.2803)">
			<stop  offset="1.074735e-03" style="stop-color:#21B4D9"/>
			<stop  offset="1" style="stop-color:#2134E3"/>
		</linearGradient>
		<path class="st4" d="M2868.8,1494.2c-10.8,12.3-25.9,19.9-40.1,20.4l-0.1-0.2c-23.1-4.7-40.4-9.5-15.4-31
			c24.9-21.5,30.1-44.7,5.2-47.6c-24.9-2.9-74.4,37.8-78.6,4.9c-4.2-33-23.5-100.9-37.8-107c-4.4-1.8-7.9-3.1-11.1-4
			c3.4-0.8,6.8-1,10-1c-3.8-0.6-8.2-1-13.2-1c-43.4,0-42.2,37.8-62,96s-35.1,98.2,3.8,135.5c38.9,37.3,129.2,37.3,184.8,8.8
			C2854.3,1547.6,2870.3,1521.5,2868.8,1494.2z M2653.1,1458.1c-12.1-22.2-3.4-64.9,6.6-92.7c-3.3,23.4-9.6,59,1.6,68.6
			c14.5,12.6,22.7,2.7,23.7,10.5c0.7,5.6-7.1,22.9-0.2,37.8C2671,1476.4,2659.2,1469.3,2653.1,1458.1z"/>
		<path class="st5" d="M2629.5,1559.3c38.9,37.3,129.2,37.3,184.8,8.8c39.5-20.2,55.5-45.9,54.4-72.8c-15.9,28.9-66.3,33.2-95,40.3
			c-39.6,9.8-46.3-27.2-80.2-21.1s-32.3-25.8-52.8-46c-12.7-12.5-13.6-35.9-10.9-57.4c-1.3,4.1-2.6,8.3-4.1,12.7
			C2605.9,1481.9,2590.6,1522,2629.5,1559.3z"/>
		<path class="st5" d="M2629.5,1559.3c38.9,37.3,129.2,37.3,184.8,8.8c25.3-12.9,40.9-28.1,48.6-44.4
			c-41.1,52.3-113.5,44.7-189.5,28.3c-63.9-13.8-61.9-72.7-53.8-110.5C2603.3,1490.2,2594.6,1525.9,2629.5,1559.3z"/>
	</g>
	<path class="st1" d="M2921.3,1627c11.8-15.8,36-21.3,30.1-32.2c-4.1-10.7-30.4-21.7-52.5-24.8c-22.8-3.2-31.6,12.7-51.8,10.2
		c-24.6-3.1-42.8,17.1-54.3,26.9c-25.7,19.4,18.9,50.6,44.3,42.1C2864.7,1640,2900.8,1654.2,2921.3,1627z"/>
	<g>
		<g>
			<path class="st6" d="M2792,1396.3c4.6,1.9,6.8,4.4,11.7,5c4.9,0.6,10.6,1.8,12,4.1c1.4,2.2,3,3.3,4.6,6.9s2.4,4.6,1.8,5.3
				s-0.6,0.4-0.9,1.9c-0.2,1.5-0.9,0.9-1.3,2.5c-0.5,1.6-1.2,1.9-1.8,2.5s-3.1,3.2-4.3,1.7c-1.2-1.6-1.1-2.5,0-3.6
				c1.1-1.1,0.5-1.8-0.5-2.1c-1-0.3-2.3-0.8-5.6-1.6c-3.3-0.8-8.4-1.7-11.8-4.8c-3.4-3.1-3.5-5.5-9.4-6.7
				C2745.9,1399.6,2780.3,1391.3,2792,1396.3z"/>
			<path class="st6" d="M2801.9,1405.6c-2.8-7-5.8-8-15.5-11c-9.7-3-37.2-13.2-45.2-15c-8-1.8-13.2-0.8-15.2-2.1
				c-3.7-2.4-4.8-1.3-5.7,0.5c-0.2,8.3,2.9,16.9,15.8,19.5c0.1,0,0.1,0,0.2,0c1.6,0.3,2.9,0.6,4.1,0.9c2.9,0.6,6.2,1.2,10.3,2
				c7.9,1.5,26,4.9,32.7,6.2c0.7,0.1,5-1.1,9.1-1C2797,1405.9,2802.8,1407.9,2801.9,1405.6z"/>
			<g>
				<path class="st7" d="M2802,1412.8c-5.3-2-4.2-4.3-8.7-7c-0.9-0.6-2.3-1.1-3.7-1.7c-0.1-0.1-0.2-0.1-0.4-0.1
					c-1.9-0.7-4.1-1.4-6.3-2c-0.2-0.1-0.4-0.1-0.5-0.2c-0.1,0-0.3-0.1-0.4-0.1v0c-7.5-2-16.9-4-24.4-5.5
					c-13.7-2.8-21.9-5.5-29.3-7.3c-2.7-0.7-5.1-2.2-7.3-4.3c1.4,5.9,5.6,11.1,15.1,13c0.1,0,0.1,0,0.2,0c1.6,0.3,2.9,0.6,4.1,0.9
					c2.9,0.6,6.2,1.2,10.3,2c7.1,1.3,22.5,4.2,30.4,5.7c1.7,0.4,3.4,0.8,5.4,1.2c4.9,0.9,5.8,2.8,7.9,5.1l0,0c0.4,0.5,0.9,1,1.5,1.5
					c3.4,3.1,8.5,4,11.8,4.8c3.3,0.8,4.6,1.3,5.6,1.6c1.1,0.3,1.6,1,0.5,2.1c-0.9,0.9-1.1,1.7-0.5,2.8c1.5-0.9,3-2,3.1-3.6
					C2816.9,1417.3,2807.3,1414.8,2802,1412.8z"/>
				<path class="st7" d="M2813.8,1426.1c-0.2-0.3-0.4-0.5-0.5-0.8l0,0C2813.4,1425.6,2813.6,1425.8,2813.8,1426.1z"/>
			</g>
		</g>
		<g>
			<path class="st6" d="M2912.3,1582.2c-9.5-10.2-17.2-20.7-26-36.9c-4.1-7.6-6.6-12.3-8.6-16.7c-1.1,5.3-9.9,9.3-18.1,2.3
				c6.4,10.2,7.2,12.8,6.7,17.4c-0.5,5.2-3.9,11.5,1.6,16c5.5,4.5,7,4.8,9.4,5.4c2.4,0.6,6.6,5.3,10.2,10.2
				c3.6,4.9,7.5,13.7,20.6,15.9C2921.1,1598,2921.8,1592.4,2912.3,1582.2z"/>
			<path class="st8" d="M2918.7,1593.2c0,0,0-0.1,0-0.1c0-0.4,0-0.8-0.1-1.2l0,0c-1.8,6.2-16.8,0.4-20.8-2.6
				c-4.7-3.5-9.8-12.3-15.3-18.3s-6.9-12-8-17.1c-0.9-4.2-2.2-8.9-6.9-19.2c-2.6-0.2-5.4-1.3-8.1-3.6c3.5,5.6,5.3,8.9,6.2,11.6
				c0,0.1,0,0.1,0.1,0.2c0.1,0.2,0.1,0.4,0.2,0.6c0,0.1,0.1,0.2,0.1,0.3c0,0.2,0.1,0.4,0.1,0.5c0,0.1,0,0.2,0.1,0.3
				c0,0.2,0.1,0.3,0.1,0.5c0,0.1,0,0.3,0,0.4c0,0.2,0,0.3,0,0.4c0,0.1,0,0.3,0,0.4c0,0.1,0,0.3,0,0.4c0,0.2,0,0.4,0,0.6
				c0,0.1,0,0.2,0,0.3c0,0.3,0,0.6-0.1,0.9c-0.5,5.2-3.9,11.5,1.6,16c5.5,4.5,7,4.8,9.4,5.4c2.4,0.6,6.6,5.3,10.2,10.2
				c3.6,4.9,7.5,13.7,20.6,15.9c0.9,0.2,1.8,0.3,2.6,0.3c0.2,0,0.5,0,0.7,0.1c0.6,0,1.1,0.1,1.6,0.1c0.2,0,0.4,0,0.6,0
				c0.5,0,0.9-0.1,1.3-0.1c0.1,0,0.3,0,0.5-0.1c0.5-0.1,0.9-0.2,1.3-0.3c0,0,0,0,0.1,0c0.9-0.3,1.4-0.8,1.8-1.5c0,0,0-0.1,0.1-0.1
				C2918.6,1593.8,2918.7,1593.5,2918.7,1593.2z"/>
		</g>
		<path class="st9" d="M2879.2,1529.1c-2.5-5.5-4.5-10.5-7.6-19.4c-5.9-16.6-7.9-34.3-27.2-62.7s-27.6-19.3-54.8-17.3
			c-27.2,2-54.4,32.4-24.4,35.7c8.6,0.9,25.2,2.4,35.5-1.4c10.2-3.8,15-1.4,15.7-1c0.7,0.4,6.2,15,12.3,24.8s18.7,24.5,28.2,39.3
			c1,1.6,1.9,3.1,2.8,4.4C2868.5,1539.1,2878,1534.7,2879.2,1529.1z"/>
		<path class="st8" d="M2864.4,1527.2c-8.5-17.3-38.8-64.9-40-73.2s-4.1-11.2-5.7-15.8c-1.2-3.6,4.1-8.7,9.4-8.5
			c-7.8-4.5-15.3-3-26.5-1.4c-0.7,0.1-1.4,0.2-2.2,0.3c-0.1,0-0.2,0-0.3,0c-0.9,0.1-1.8,0.2-2.7,0.3c-0.2,0-0.4,0.1-0.7,0.1
			c-0.7,0.1-1.5,0.2-2.2,0.2c-0.3,0-0.5,0.1-0.8,0.1c-1,0.1-2,0.2-3.1,0.3c-27.2,2-54.4,32.4-24.4,35.7c8.6,0.9,25.2,2.4,35.5-1.4
			c10.2-3.8,15-1.4,15.7-1c0.7,0.4,6.2,15,12.3,24.8s18.7,24.5,28.2,39.3c1,1.6,1.9,3.1,2.8,4.4c3,2.5,6,3.7,8.8,3.9
			C2867.2,1533,2865.9,1530.3,2864.4,1527.2z"/>
		<g>
			<path class="st6" d="M2857,1612.9c-11.4-18.7-16.9-28.1-23.4-48.4c-1.1-3.3-2-6.6-2.9-9.8c-1.8,4.5-9.6,7.5-17,1.4
				c0.6,1,1.1,2.1,1.7,3.1c7.2,14.2,7,16.6,6.6,20.8c-0.4,4.2-0.9,4.7,3.3,12.2c4.2,7.5,5.2,14.8,7.3,22c2.1,7.2,3.8,12.2,17.1,14
				C2863.1,1630.1,2868.4,1631.6,2857,1612.9z"/>
			<path class="st8" d="M2863.2,1626.8c0-0.4,0-1-0.1-1.6c-0.9,4.3-9.1,0.8-12.7,0.2c-4.5-0.7-10.4-2.7-12.8-7.6
				c-2.4-4.9-6.3-18.5-8-23.4c-1.8-4.9-0.4-4.9-1.4-9.6c-1.1-4.7-1.2-12.4-3.8-21c-0.3-0.9-0.8-2.4-1.5-4.3c-2.8,0.1-5.9-0.9-9-3.4
				c0.6,1,1.1,2.1,1.6,3.1c7.2,14.2,7,16.6,6.6,20.8c-0.4,4.2-0.9,4.7,3.3,12.2c4.2,7.5,5.2,14.8,7.3,22c2.1,7.2,3.8,12.2,17.1,14
				c0.9,0.1,1.8,0.2,2.6,0.3c0.3,0,0.5,0.1,0.8,0.1c0.8,0.1,1.6,0.2,2.3,0.3c0.1,0,0.3,0,0.4,0.1c0.8,0.1,1.6,0.2,2.3,0.2
				c0,0,0,0,0,0c0.6,0,1.2,0,1.8,0c0.1,0,0.2,0,0.3,0c0.5-0.1,0.9-0.2,1.3-0.3c0,0,0.1,0,0.1,0c0.4-0.2,0.7-0.4,0.9-0.7
				c0,0,0-0.1,0.1-0.1c0.2-0.3,0.3-0.6,0.4-1C2863.2,1627,2863.2,1626.9,2863.2,1626.8z"/>
		</g>
		<path class="st9" d="M2832.3,1554.7c-5-18.2-7.7-34.7-13.6-56.4c-7.1-26-6.6-41.8-19.2-49.7c-12.6-7.9-23.9-7.6-43.4-4.7
			c-19.4,2.9,1.6-14.2-14.7-21.8c-16.3-7.6-27.4-8.3-30.2-2.9c-6.5,12.9-12.6,24.4-12.6,39.4c0,15,6.3,33.6,28.4,33.6
			c22.1,0,41-5.5,48.9-8.4c7.9-2.9,7.8,0.4,7.9,0.8s-0.4,15.4,4.3,28.8c4.4,12.4,16.9,27.9,25.1,42.8
			C2821.4,1563.1,2830.2,1559.7,2832.3,1554.7z"/>
		<path class="st8" d="M2823.3,1560.1c-7-19.4-30.7-81-30.9-88.9c-0.2-8.9-8.9-13.2-6.5-17.3c1.9-3.4,7.9-6.4,12.8-5.6l0,0
			c-5.9-3.5-11.4-5.3-17.8-5.9c0,0-0.1,0-0.1,0c-1.5-0.2-3.1-0.2-4.7-0.2c-0.1,0-0.2,0-0.3,0c-1.6,0-3.2,0.1-5,0.2
			c-0.1,0-0.2,0-0.4,0c-1.7,0.1-3.5,0.3-5.4,0.5c-0.1,0-0.2,0-0.3,0c-1.9,0.2-3.9,0.5-6.1,0.8c-9.7,1.5-15,3.8-28.9,5.6
			c-14,1.8-9.9-3.7-9.6-11.6c0.2-4.1,2.4-12.8,4.8-21.1l0,0c-0.9-0.2-1.7-0.3-2.5-0.4c-0.2,0-0.3,0-0.5-0.1
			c-0.6-0.1-1.2-0.1-1.8-0.2c-0.2,0-0.4,0-0.5,0c-0.6,0-1.1,0-1.7,0c-0.1,0-0.2,0-0.4,0c-0.6,0-1.3,0.1-1.8,0.2c0,0,0,0,0,0
			c-0.5,0.1-1,0.3-1.5,0.4c-0.1,0.1-0.3,0.1-0.4,0.2c-0.3,0.1-0.6,0.3-0.9,0.5c-0.1,0.1-0.3,0.2-0.4,0.3c-0.3,0.2-0.5,0.4-0.7,0.6
			c-0.1,0.1-0.2,0.2-0.3,0.3c-0.3,0.3-0.5,0.7-0.7,1.1c-6.5,12.9-12.6,24.4-12.6,39.4c0,15,6.3,33.6,28.4,33.6
			c22.1,0,41-5.5,48.9-8.4c7.9-2.9,7.8,0.4,7.9,0.8s-0.4,15.4,4.3,28.8c0.3,0.8,0.6,1.6,1,2.5c0.1,0.3,0.2,0.6,0.4,0.8
			c0.2,0.6,0.5,1.1,0.8,1.7c0.1,0.3,0.3,0.6,0.5,1c0.3,0.6,0.6,1.1,0.8,1.7c0.2,0.3,0.4,0.7,0.5,1c0.3,0.6,0.6,1.2,1,1.8
			c0.2,0.3,0.3,0.6,0.5,0.9c0.4,0.6,0.7,1.3,1.1,1.9c0.1,0.2,0.3,0.5,0.4,0.7c0.5,0.8,0.9,1.5,1.4,2.3c0.1,0.1,0.1,0.2,0.2,0.3
			c5.3,8.5,11.7,17.5,16.5,26.3C2816.6,1559.1,2820.2,1560.2,2823.3,1560.1z"/>
		<g>
			<path class="st9" d="M2683.3,1282.2c1.4-18.4,15.3-32.4,30.9-31.2s27.2,17.1,25.8,35.6c-1.4,18.4-15.3,32.4-30.9,31.2
				C2693.4,1316.5,2681.9,1300.6,2683.3,1282.2z"/>
			<path class="st8" d="M2709.6,1300.5c-1.7-9.7-0.9-14.4-8-21.2c-6.9-6.7,3.1-32.7,28.8-20.3c-0.4-0.4-0.7-0.8-1.1-1.4
				c-4.2-3.8-9.3-6.2-15.1-6.6c-15.7-1.2-29.5,12.8-30.9,31.2c-1.4,18.4,10.1,34.3,25.8,35.6c4.9,0.4,9.6-0.7,13.9-3
				C2715.3,1309.1,2710.1,1303.4,2709.6,1300.5z"/>
			<path class="st6" d="M2698.9,1301.4c8.1,7,2.3,27.7-5.1,32.1c-8.1,4.9,12.4,27.6,32.8,13.5c20.4-14.1,8.1-33.2-1.2-30.1
				c-4.3,1.4-2.9-1.9-4.1-15.2c-1.2-13.3-7.1,2.1-12.4,4.3C2703.6,1308.3,2698.3,1300.9,2698.9,1301.4z"/>
			<path class="st10" d="M2705.7,1329.1c3.1-7.5,4.6-14.8,1-26.9c0,0-8.2-1.2-7.9-0.9c8.1,7,2.3,27.7-5.1,32.1
				c-6.5,3.9,5.5,19.4,21.1,17.9c-2.7-3.5-16.3-3.6-17.5-6.3C2692.8,1335.1,2703,1335.8,2705.7,1329.1z"/>
			<path class="st11" d="M2767.8,1356.6c-8.1-14.7-11.8-13-14.9-24.7c-3-11.4-10.2-19.1-15.5-18.2c-4.7,0.8-9.2,2.1-13.7,3.7
				c5.9-2.3,16.2,12.8,2.5,21.1c-13.8,8.3-29.6-6.7-34.6-3.8c0,0,0.1,0,0.1-0.1c-17.6,10.4-25.4,14.8-7.3,37.1
				c0.3,0.4,0.5,0.7,0.8,1.1c0.4,0.5,0.8,1.1,1.1,1.6c1.4,1.7,2.9,3.5,5.1,6.7c3.8,5.3,15.9,33.2,13.4,50.4c1.1,1.7,3,3.3,6.2,5
				c4.3,2.3,11.4,5,18.8,6.6c9.2,2,18.8,2.2,23.9-2.1c4.8-4.1,7.7-6.3,9.1-9.3c-3.4-10.5,0.8-22.6,1.2-29.7c0.4-7.3,0.4-17,0.6-20.8
				C2764.7,1377.5,2775.9,1371.3,2767.8,1356.6z"/>
			<path class="st7" d="M2765.5,1379c0.1-0.1,0.1-0.2,0.2-0.3c0.7-1.1,1.7-2.4,2.6-3.9c0.1-0.2,0.2-0.3,0.2-0.4
				c0.2-0.4,0.4-0.8,0.6-1.3c0.1-0.2,0.2-0.4,0.3-0.7c0.2-0.4,0.4-0.9,0.5-1.3c0.1-0.3,0.1-0.6,0.2-0.8c0.3-1.3,0.6-2.6,0.5-4.2
				c0,0,0,0,0,0c-0.3,1.3-1.2,2.9-2.5,4.7c-4.4,3.3-10,6.5-17.3,10.1c-23.9,11.8-31.7,6.4-38.1-2.9c-4.6-6.7-8.6-13.7-15.4-21.1
				c-6.3-8.8-13.8-9.4-4.8-16.2c1.6-1.2,3.7-2.8,6.1-4.6c0,0,0,0,0,0c0,0,0,0,0,0c-3.1-1.3-5.6-2-7.1-1.1c0,0,0.1,0,0.1-0.1
				c-4.5,2.7-8.4,4.9-11.3,7.2c-0.6,0.4-1.1,0.8-1.6,1.3c-0.2,0.2-0.5,0.4-0.7,0.7c-0.3,0.3-0.6,0.6-0.8,0.8
				c-0.2,0.2-0.4,0.5-0.6,0.7c-0.4,0.4-0.7,0.9-1,1.3c-3.5,5.5-1.6,12.4,8.6,25.1c0.3,0.4,0.5,0.7,0.8,1.1c0.4,0.5,0.8,1.1,1.1,1.6
				c1.4,1.7,2.9,3.5,5.1,6.7c3.8,5.3,15.9,33.2,13.4,50.4c1.1,1.7,3,3.3,6.2,5c2.8,1.5,6.9,3.2,11.4,4.7c-0.1-4.4-0.7-5.8-0.8-6.1
				c-0.1-0.7-0.1-1.3-0.2-2c0-0.1,0-0.2,0-0.2c0,0,0,0,0,0c-1.6-14.2-2.8-26,8.4-32c10.6-5.8,26.8-12.3,34.7-14.7
				c0-2,0.1-3.7,0.1-4.9c0-0.3,0.1-0.7,0.3-1c0.1-0.1,0.1-0.3,0.2-0.4C2765.1,1379.6,2765.3,1379.3,2765.5,1379z"/>
			<path class="st10" d="M2724.3,1317.3c0.2,0,0.4-0.1,0.6-0.1c0,0,0,0,0.1,0c0.2,0,0.4,0,0.6,0c0,0,0,0,0.1,0
				c0.2,0,0.4,0.1,0.6,0.1c0,0,0,0,0,0c0.8,0.2,1.7,0.7,2.5,1.3c4.6-1.8,9.3-3.1,13.9-3.6c-1.8-1.2-3.6-1.7-5.2-1.4
				c-1.2,0.2-2.3,0.4-3.5,0.7c-3.4,0.8-6.8,1.8-10.2,3C2723.9,1317.4,2724.1,1317.3,2724.3,1317.3
				C2724.3,1317.3,2724.3,1317.3,2724.3,1317.3z"/>
			<path class="st9" d="M2720,1306.7c15,9.2,26.8,16,29,32.4c2.2,16.5,4.4,18.7,6.6,22.7c2.2,4.1-10.6,0.4-24.2-9.7
				c-13.5-10.1,6.8-23.7-11.2-36.3C2702.2,1303.2,2712,1301.8,2720,1306.7z"/>
			<path class="st8" d="M2720.3,1315.9c18.1,12.7-2.3,26.2,11.2,36.3c13.5,10.1,26.4,13.7,24.2,9.7c-1.3-2.3-2.5-4-3.8-8
				c-1,1.9-4.2-1.1-7-2.1c-4.1-1.3-9.3-8.1-10.4-17.3c-1.1-9.2-2.8-10.8-10.3-16.7c-4.1-3.2-3.4-6.2-11-13.7
				C2708.7,1303.7,2707.6,1307,2720.3,1315.9z"/>
			<path class="st6" d="M2735.4,1281.2c-0.6-4.2-7.6-7.9-12.4-2.7c-6.4,7-7.1,10.2-14.7,17.6c-0.7,0.7-1.4,1.2-2,1.7
				c0-0.7-0.1-1.3-0.2-2c-0.8-4.3-3.9-7.3-6.8-6.8c-2.9,0.6-4.6,4.5-3.8,8.8c0.4,2.3,1.5,4.2,2.9,5.4c4.1,8,9.7,13.6,17.7,17.6
				c11.8,5.9,18.6-8.1,19.7-22.3C2736.2,1291.2,2736.1,1285.6,2735.4,1281.2z"/>
			<path class="st10" d="M2710.5,1306.8c-0.5-6.3-1.8-11.1-2.2-10.7c-0.7,0.7-1.4,1.2-2,1.7c0-0.7-0.1-1.3-0.2-2
				c-0.8-4.3-3.9-7.3-6.8-6.8c-2.2,0.4-3.7,2.7-3.9,5.6c-0.1,0.9,0,1.9,0.2,2.8c0.4,2.3,1.5,4.2,2.9,5.4c0.3,0.6,0.6,1.2,0.8,1.8
				c4.1,7.2,9.4,12.4,16.9,16.1c2.8,1.4,5.3,1.7,7.6,1.1C2716.7,1323.4,2710.9,1312.7,2710.5,1306.8z"/>
			<path class="st11" d="M2691,1359.1c-1.6-9.1-6.8-15.8-11.7-15c-4.8,0.9-7.4,8.9-5.9,18.1c1.6,9.1,6.8,15.8,11.7,15
				C2689.9,1376.3,2692.6,1368.2,2691,1359.1z"/>
		</g>
		<g>
			<polygon class="st12" points="2850.2,1414.3 2799.4,1404.5 2719.2,1450.7 2720.3,1453.9 2771.2,1463.8 2851.3,1417.5 			"/>
			<polygon class="st8" points="2850.2,1414.3 2799.4,1404.5 2719.2,1450.7 2720.3,1453.9 2771.2,1463.8 2851.3,1417.5 			"/>
			<polygon class="st12" points="2799.4,1404.5 2719.2,1450.7 2770.1,1460.6 2850.2,1414.3 			"/>
			<polygon class="st12" points="2863.6,1367.5 2783.4,1413.8 2770.1,1460.6 2771.5,1462.9 2851.7,1416.6 2865.1,1369.8 			"/>
			<polygon class="st8" points="2863.6,1367.5 2783.4,1413.8 2770.1,1460.6 2771.5,1462.9 2851.7,1416.6 2865.1,1369.8 			"/>
			<polygon class="st12" points="2851.7,1416.6 2771.5,1462.9 2785.3,1415.8 2865.1,1369.8 			"/>
		</g>
		<g>
			<path class="st6" d="M2740.5,1422c4.9,0.7,7.7,2.4,12.6,1.7c4.9-0.8,10.7-1.1,12.6,0.7s3.8,2.4,6.3,5.4c2.6,3.1,3.6,3.7,3.1,4.6
				c-0.4,0.9-0.5,0.5-0.3,2.1c0.2,1.5-0.6,1.1-0.6,2.8c0,1.6-0.7,2.2-1.1,2.9c-0.4,0.8-2.1,3.9-3.7,2.8c-1.6-1.2-1.7-2.1-0.9-3.5
				c0.8-1.3,0-1.9-1.1-1.9c-1.1,0-2.4-0.2-5.9-0.1c-3.4,0.2-8.6,0.6-12.6-1.4c-4.1-2.1-4.9-4.4-10.8-3.9
				C2696.9,1437.5,2727.8,1420.4,2740.5,1422z"/>
			<path class="st6" d="M2752.5,1428.3c-4.6-6-7.8-6.2-17.9-6.4c-9.4-0.2-35.4-2.4-45.6-2.4h0c-0.5,0.2-1.1,0.5-1.6,0.9c0,0,0,0,0,0
				c-0.5,0.4-1,0.8-1.5,1.3c0,0,0,0,0,0c-0.5,0.5-0.9,1.2-1.2,1.9l0,0c-0.4,0.7-0.6,1.5-0.8,2.4c-0.6,3,0,7,3.1,12.2
				c-1.2,0.1-2.3,0.1-3.3,0c1.1,0.1,2.2,0.1,3.4,0c0.1,0,0.1,0,0.2,0c1.6-0.1,3-0.2,4.2-0.2c3-0.2,6.3-0.5,10.5-0.8
				c8-0.7,26.4-2.2,33.2-2.8c0.7-0.1,4.5-2.4,8.6-3.4C2747.9,1430,2754,1430.3,2752.5,1428.3z"/>
			<path class="st10" d="M2754.5,1435.3c-5.7-0.5-5.2-3-10.2-4.4c-1-0.3-2.5-0.5-4.1-0.6c-0.1,0-0.2,0-0.4,0c-2-0.2-4.3-0.3-6.6-0.2
				c-0.2,0-0.4,0-0.6,0c-0.1,0-0.3,0-0.5,0c-7.8,0-17.3,0.7-24.9,1.2c-9.9,0.7-17.1,0.7-23.2,0.7c0.5,1.9,1.4,4,2.8,6.4
				c-1.2,0.1-2.3,0.1-3.3,0c1.1,0.1,2.2,0.1,3.4,0c0.1,0,0.1,0,0.2,0c1.6-0.1,3-0.2,4.2-0.2c3-0.2,6.3-0.5,10.5-0.8
				c7.2-0.6,22.8-1.9,30.8-2.6c1.7-0.1,3.5-0.2,5.6-0.3c6-0.5,6.7,1.8,10.8,3.9c4.1,2.1,9.2,1.6,12.6,1.4c3.4-0.2,4.8,0.1,5.9,0.1
				c1.1,0,1.8,0.5,1.1,1.9c-0.6,1.1-0.6,1.9,0.2,2.8c1.2-1.3,2.3-2.8,2-4.3C2770,1435.6,2760.2,1435.8,2754.5,1435.3z"/>
			<path class="st11" d="M2683.8,1426c0.2-0.9,0.4-1.7,0.8-2.4l0,0c0.4-0.7,0.8-1.3,1.2-1.9c0,0,0,0,0,0c0.5-0.5,1-1,1.5-1.3
				c0,0,0,0,0,0c0.5-0.4,1.1-0.7,1.6-0.9c-4.6-0.1-4.8-2.8-4.6-5.1c0.1-0.4,0.1-0.8,0.2-1.2c0-0.2,0.1-0.4,0.1-0.6c0,0,0,0,0,0v0
				c0.9-6.5,1.8-13,2-16.1c1.1-12.8,1.3-30.5-2.7-41.9c-4-11.5-5.6-10.2-6.6-9.4c-7.9,5.8-8.8,9.5-9.9,20.5
				c-0.9,8.2-1.6,31.7-2.2,47.2c0,3.1,0.3,6.9,1.2,10.6c0,0,0,0,0,0.1c0.1,0.6,0.3,1.1,0.5,1.7c0.1,0.2,0.1,0.3,0.2,0.5
				c0.3,0.9,0.7,1.8,1.1,2.7c0,0.1,0.1,0.2,0.1,0.2c2.9,5.8,8.3,10.1,18.4,9.4C2683.8,1433.1,2683.2,1429.1,2683.8,1426z"/>
			<path class="st11" d="M2691,1359.1c-1.6-9.1-6.8-15.8-11.7-15c-4.8,0.9-7.4,8.9-5.9,18.1c1.6,9.1,6.8,15.8,11.7,15
				C2689.9,1376.3,2692.6,1368.2,2691,1359.1z"/>
			<path class="st7" d="M2691,1359.1c-0.8-4.5-2.5-8.5-4.6-11.2c0,0,0,0,0,0c-1.6-2.1-3.4-3.4-5.2-3.8c-0.2-0.1-0.5,0-0.8,0
				c-0.3,0-0.7-0.1-1,0c0,0,0,0,0,0c0,0-0.1,0-0.1,0c-1.4,0.2-2.6,1.2-3.6,2.5c-6.2,5.1-7.1,9-8.2,19.2c-0.1,0.5-0.1,1-0.1,1.6
				c0,0.2,0,0.4-0.1,0.6c0,0.4-0.1,0.8-0.1,1.3c0,0.3,0,0.5-0.1,0.8c0,0.4-0.1,0.9-0.1,1.3c0,0.3,0,0.6-0.1,0.9c0,0.5-0.1,1-0.1,1.6
				c0,0.3,0,0.5-0.1,0.8c0,0.8-0.1,1.6-0.1,2.5c0,0.3,0,0.7-0.1,1c0,0.6-0.1,1.2-0.1,1.8c0,0.3,0,0.7-0.1,1c0,0.3,0,0.7-0.1,1l0,0
				c-0.5,10-0.9,21.9-1.2,31.1c0,5,0.6,11.6,3.6,16.8c0,0,0,0,0,0c0.1,0.3,0.3,0.5,0.5,0.8c0.4,0.6,0.7,1.1,1.1,1.6
				c0.5,0.6,0.9,1.1,1.5,1.6c0.2,0.2,0.5,0.4,0.7,0.6c3.2,2.7,7.7,4.3,14.1,3.8c-1.4-2.4-2.3-4.5-2.8-6.4c-11,0-11.5-12.9-11.4-14.7
				c0.4-7.1,0.6-22.7,1.1-36.2c0-0.3,0-0.6,0-0.9c0-1.3,0.1-2.5,0.1-3.7c0.2-4.6,0.5-8.7,0.8-12c0.2-2.2,0.5-4.1,1-5.7c0,0,0,0,0,0
				c0.2-0.7,0.5-1.3,0.7-1.9c0.1-0.2,0.2-0.4,0.3-0.7c0.2-0.5,0.5-0.9,0.7-1.3c0.1-0.2,0.2-0.3,0.3-0.4c5.1-5.4,15.7,1.2,13,15.4
				c0,0,0-0.1,0-0.1C2691.6,1366.6,2691.6,1363,2691,1359.1z"/>
		</g>
	</g>
</g>
<g>
	<g>
		<g>

				<radialGradient id="SVGID_3_" cx="673.2411" cy="34.6355" r="67.8008" gradientTransform="matrix(1 0 0 -1.4241 0 191.9894)" gradientUnits="userSpaceOnUse">
				<stop  offset="1.074735e-03" style="stop-color:#21B4D9"/>
				<stop  offset="0.2443" style="stop-color:#21B1D9"/>
				<stop  offset="0.4163" style="stop-color:#21A8DA"/>
				<stop  offset="0.5664" style="stop-color:#2198DB"/>
				<stop  offset="0.7039" style="stop-color:#2182DD"/>
				<stop  offset="0.8328" style="stop-color:#2166DF"/>
				<stop  offset="0.9537" style="stop-color:#2143E2"/>
				<stop  offset="1" style="stop-color:#2134E3"/>
			</radialGradient>
			<path class="st13" d="M704.5,256.8l15.9-13.1c2.8-2.4,4.6-7.4,4.7-14.5l0.8-107.1c0-8.7-2.6-18.7-6.7-26.7
				c-5.5-11.3-3.8-7.9-71.6-63.7c-4.4-3.6-8.5-4-11.3-1.6l-15.9,13.1c2.9-2.4,7-2,11.4,1.6l62.3,51.3c8.7,7.3,15.9,24.6,15.9,39
				l-0.9,107.1C709.2,249.4,707.4,254.4,704.5,256.8z"/>

				<radialGradient id="SVGID_4_" cx="669.9211" cy="86.7035" r="40.1421" gradientTransform="matrix(1 0 0 -1.4241 0 191.9894)" gradientUnits="userSpaceOnUse">
				<stop  offset="1.074735e-03" style="stop-color:#21B4D9"/>
				<stop  offset="0.2443" style="stop-color:#21B1D9"/>
				<stop  offset="0.4163" style="stop-color:#21A8DA"/>
				<stop  offset="0.5664" style="stop-color:#2198DB"/>
				<stop  offset="0.7039" style="stop-color:#2182DD"/>
				<stop  offset="0.8328" style="stop-color:#2166DF"/>
				<stop  offset="0.9537" style="stop-color:#2143E2"/>
				<stop  offset="1" style="stop-color:#2134E3"/>
			</radialGradient>
			<path class="st14" d="M703.4,108.5l15.9-13.1c-5.5-11.3-3.8-7.9-71.6-63.7c-4.4-3.6-8.5-4-11.3-1.6l-15.9,13.1
				c2.9-2.4,7-2,11.4,1.6C698.4,99.5,698,97.4,703.4,108.5z"/>
			<path class="st15" d="M704.5,256.8l15.9-13.1c2.8-2.4,4.6-7.4,4.7-14.5l0.8-107.1c0-8.7-2.6-18.7-6.7-26.7
				c-5.5-11.3-3.8-7.9-71.6-63.7c-4.4-3.6-8.5-4-11.3-1.6l-15.9,13.1c2.9-2.4,7-2,11.4,1.6l62.3,51.3c8.7,7.3,15.9,24.6,15.9,39
				l-0.9,107.1C709.2,249.4,707.4,254.4,704.5,256.8z"/>

				<linearGradient id="SVGID_5_" gradientUnits="userSpaceOnUse" x1="615.051" y1="590.2832" x2="710.1111" y2="590.2832" gradientTransform="matrix(1 0 0 -1 0 740.2803)">
				<stop  offset="1.074735e-03" style="stop-color:#4FD0F0"/>
				<stop  offset="1" style="stop-color:#4E5DEB"/>
			</linearGradient>
			<path class="st16" d="M631.9,44.8c-8.8-7.2-15.9-1.4-16,12.9l-0.9,107.1c0,14.4,7.1,31.9,15.9,39.1l62.3,51.2
				c8.8,7.2,15.9,1.4,16-13l0.9-107.1c0-14.3-7.1-31.8-15.9-39L631.9,44.8z"/>
			<path class="st17" d="M700.4,247.6c2,0,1.7-1.4,2.2-112.6c0.1-10.5-5.7-24.5-12.1-29.8L628.2,54c-3.5-2.9-4.7-2.3-4.7,3.7
				l-0.9,107.1c0,10.6,5.7,24.5,12.1,29.9C701.9,250,698.5,247.6,700.4,247.6z"/>
		</g>
		<g>
			<g>
				<path class="st9" d="M631.2,92.2c6.9,5,13.9,10,20.8,14.9c10.9,7.9,21.9,15.7,32.9,23.6c2.5,1.8,5,3.6,7.5,5.4
					c1.6,1.1,3.1-1.5,1.5-2.6c-6.9-5-13.9-10-20.8-14.9c-10.9-7.9-21.9-15.7-32.9-23.6c-2.5-1.8-5-3.6-7.5-5.4
					C631.2,88.5,629.7,91.1,631.2,92.2L631.2,92.2z"/>
			</g>
		</g>
		<g>
			<g>
				<path class="st9" d="M631.2,108.1c6.9,5,13.9,10,20.8,14.9c10.9,7.9,21.9,15.7,32.9,23.6c2.5,1.8,5,3.6,7.5,5.4
					c1.6,1.1,3.1-1.5,1.5-2.6c-6.9-5-13.9-10-20.8-14.9c-10.9-7.9-21.9-15.7-32.9-23.6c-2.5-1.8-5-3.6-7.5-5.4
					C631.2,104.3,629.7,106.9,631.2,108.1L631.2,108.1z"/>
			</g>
		</g>
		<g>
			<g>
				<path class="st9" d="M631.2,127.2c6.9,5,13.9,10,20.8,14.9c10.9,7.9,21.9,15.7,32.9,23.6c2.5,1.8,5,3.6,7.5,5.4
					c1.6,1.1,3.1-1.5,1.5-2.6c-6.9-5-13.9-10-20.8-14.9c-10.9-7.9-21.9-15.7-32.9-23.6c-2.5-1.8-5-3.6-7.5-5.4
					C631.2,123.5,629.7,126.1,631.2,127.2L631.2,127.2z"/>
			</g>
		</g>
		<g>
			<g>
				<path class="st9" d="M631.2,145.6c6.9,5,13.9,10,20.8,14.9c10.9,7.9,21.9,15.7,32.9,23.6c2.5,1.8,5,3.6,7.5,5.4
					c1.6,1.1,3.1-1.5,1.5-2.6c-6.9-5-13.9-10-20.8-14.9c-10.9-7.9-21.9-15.7-32.9-23.6c-2.5-1.8-5-3.6-7.5-5.4
					C631.2,141.9,629.7,144.5,631.2,145.6L631.2,145.6z"/>
			</g>
		</g>
		<g>
			<g>
				<path class="st9" d="M631.2,162.9c6.9,5,13.9,10,20.8,14.9c10.9,7.9,21.9,15.7,32.9,23.6c2.5,1.8,5,3.6,7.5,5.4
					c1.6,1.1,3.1-1.5,1.5-2.6c-6.9-5-13.9-10-20.8-14.9c-10.9-7.9-21.9-15.7-32.9-23.6c-2.5-1.8-5-3.6-7.5-5.4
					C631.2,159.2,629.7,161.8,631.2,162.9L631.2,162.9z"/>
			</g>
		</g>
	</g>
	<g>
		<g>
			<g>
				<path class="st18" d="M563.2,258.1l-0.7-1.2l17.9-10.3l0.7,1.2L563.2,258.1z M587.1,244.3l-0.7-1.2l17.9-10.3l0.7,1.2
					L587.1,244.3z M610.9,230.6l-0.7-1.2l17.9-10.3l0.7,1.2L610.9,230.6z M634.7,216.8l-0.7-1.2l17.9-10.3l0.7,1.2L634.7,216.8z"/>
			</g>
			<g>
				<path class="st19" d="M563.2,272.4l-0.7-1.2l17.9-10.3l0.7,1.2L563.2,272.4z M587.1,258.7l-0.7-1.2l17.9-10.3l0.7,1.2
					L587.1,258.7z M610.9,244.9l-0.7-1.2l17.9-10.3l0.7,1.2L610.9,244.9z M634.7,231.2L634,230l17.9-10.3l0.7,1.2L634.7,231.2z"/>
			</g>
		</g>
		<g>
			<g>
				<g>
					<path class="st20" d="M681.7,342.9c-0.2,0.4-0.3,0.8-0.5,1.2c0.6,1.5,0.9,3.1,0.9,4.8c0,4.8-2.5,9.2-6.7,11.6L436.8,498.2
						c-10.6,6.1-23.7,6.1-34.3,0L164,360.5c-4.2-2.4-6.7-6.8-6.7-11.6c0-1.7,0.3-3.3,0.9-4.8c-0.2-0.4-0.4-0.8-0.5-1.2
						c-0.8,1.8-1.3,3.9-1.3,6c0,5.2,2.7,9.8,7.2,12.5L402,499c5.4,3.1,11.5,4.7,17.6,4.7c6.1,0,12.2-1.6,17.6-4.7l238.5-137.7
						c4.5-2.6,7.2-7.2,7.2-12.5C683,346.7,682.5,344.7,681.7,342.9z"/>
					<path class="st21" d="M164,337.2l238.5-137.7c5.3-3,11.2-4.6,17.1-4.6s11.8,1.5,17.1,4.6l238.5,137.7c2.8,1.6,4.8,4,5.8,6.9
						c0.2-0.4,0.4-0.8,0.5-1.2c-1.2-2.6-3.2-4.9-5.9-6.4L437.3,198.7c-10.9-6.3-24.4-6.3-35.2,0l0.2,0.4l-0.2-0.4L163.5,336.4
						c-2.7,1.5-4.7,3.8-5.9,6.4c0.2,0.4,0.3,0.8,0.5,1.2C159.2,341.3,161.2,338.8,164,337.2z"/>
				</g>
				<path class="st1" d="M402.3,188.4L163.8,326.1c-9.3,5.4-9.3,18.7,0,24.1l238.5,137.7c10.8,6.2,24,6.2,34.8,0l238.5-137.7
					c9.3-5.3,9.3-18.7,0-24.1L437,188.4C426.3,182.2,413,182.2,402.3,188.4z"/>
			</g>
			<g>

					<linearGradient id="SVGID_6_" gradientUnits="userSpaceOnUse" x1="289.8711" y1="445.1801" x2="549.4308" y2="445.1801" gradientTransform="matrix(1 0 0 -1 0 740.2803)">
					<stop  offset="1.074735e-03" style="stop-color:#21B4D9"/>
					<stop  offset="1" style="stop-color:#2134E3"/>
				</linearGradient>
				<path class="st22" d="M289.9,302.6c0,1.9,2.2,3.5,5.4,4l18.6,2.7c2.5,0.4,4.4,1.5,5.1,2.9c1.6,3.2,3.7,6.4,6.3,9.5l-8.7-0.8
					v19.2h0c0,1.1,0.7,2.1,2.1,2.9l18.2,10.5c2.3,1.3,5.9,1.6,8.7,0.6l16.4-5.7c2.2-0.8,4.9-0.8,7.2-0.1c6.7,2.1,13.7,3.8,21,5
					c2.5,0.4,4.3,1.5,5,3l4.7,10.8c0.8,1.8,3.7,3.1,6.9,3.1l25.7,0c3.3,0,6.1-1.3,6.9-3.1l4.6-10.7c0.6-1.4,2.5-2.6,5-3
					c7.2-1.2,14.3-2.9,21-5c2.2-0.7,4.9-0.7,7.1,0.1l16.4,5.7c2.8,1,6.4,0.7,8.7-0.6l18.1-10.5c1.4-0.8,2.1-1.8,2.1-2.9h0v-19.2
					l-7.9,0c2.2-2.8,4.1-5.6,5.6-8.6c0.7-1.4,2.7-2.5,5.1-2.9l18.6-2.7c3.2-0.5,5.4-2.1,5.4-4l0.1-22.2c0-1.9-2.2,3.8-5.4,3.3
					l-18.7-2.7c-2.5-0.4-4.4-1.5-5.1-2.9c-2.1-4.1-5-8.2-8.7-12.1c-1.2-1.3-1.2-2.9,0.1-4.1l9.9-9.5c0.7-0.7,1-1.4,1-2.1h0v-19.2
					l-14.2,9.3l-6.1-3.5c-2.3-1.3-5.9-1.6-8.7-0.6l-16.4,5.7c-2.2,0.8-4.9,0.8-7.1,0.1c-6.7-2.1-13.8-3.8-21-5c-2.5-0.4-4.4-1.5-5-3
					l-4.6-10.7c-0.8-1.8-3.6-3.1-6.9-3.1h-25.8c-3.3,0-6.1,1.3-6.9,3.1l-4.6,10.7c-0.6,1.4-2.5,2.5-5,3c-7.2,1.2-14.2,2.9-20.9,5
					c-2.2,0.7-5,0.7-7.1-0.1l-16.5-5.7c-2.8-1-6.4-0.7-8.7,0.6l-5.3,3.1l-15-8.9v19.2h0c0,0.7,0.3,1.5,1,2.1l9.9,9.5
					c1.3,1.3,1.4,2.9,0.1,4.2c-3.7,3.9-6.6,7.9-8.7,12.1c-0.7,1.4-2.7,2.5-5.2,2.9l-18.6,2.6c-3.2,0.5-5.4-5.1-5.4-3.3L289.9,302.6z
					 M368.5,265.6c28.2-16.3,74.1-16.3,102.3,0c28.2,16.3,28.2,42.8,0,59c-28.2,16.3-74.1,16.2-102.3,0
					C340.3,308.4,340.2,281.8,368.5,265.6z"/>

					<linearGradient id="SVGID_7_" gradientUnits="userSpaceOnUse" x1="2298.0769" y1="464.4052" x2="2557.6167" y2="464.4052" gradientTransform="matrix(-1 0 0 -1 2847.4976 740.2803)">
					<stop  offset="1.074735e-03" style="stop-color:#4FD0F0"/>
					<stop  offset="1" style="stop-color:#4E5DEB"/>
				</linearGradient>
				<path class="st23" d="M317.7,233.2l9.9,9.5c1.3,1.3,1.4,2.9,0.1,4.2c-3.7,3.9-6.6,7.9-8.7,12.1c-0.7,1.4-2.7,2.5-5.2,2.9
					l-18.6,2.6c-3.2,0.5-5.4,2.1-5.4,4v14.9c0,1.9,2.2,3.5,5.4,4l18.6,2.7c2.5,0.4,4.4,1.5,5.1,2.9c2.1,4.2,5,8.2,8.7,12.1
					c1.2,1.3,1.2,2.9-0.1,4.1l-9.9,9.5c-1.7,1.6-1.2,3.7,1.1,5l18.2,10.5c2.3,1.3,5.9,1.6,8.7,0.6l16.4-5.7c2.2-0.8,4.9-0.8,7.2-0.1
					c6.7,2.1,13.7,3.8,21,5c2.5,0.4,4.3,1.5,5,3l4.7,10.8c0.8,1.8,3.7,3.1,6.9,3.1l25.7,0c3.3,0,6.1-1.3,6.9-3.1l4.6-10.7
					c0.6-1.4,2.5-2.6,5-3c7.2-1.2,14.3-2.9,21-5c2.2-0.7,4.9-0.7,7.1,0.1l16.4,5.7c2.8,1,6.4,0.7,8.7-0.6l18.1-10.5
					c2.3-1.3,2.7-3.4,1.1-5l-9.8-9.5c-1.3-1.3-1.3-2.8-0.1-4.1c3.7-3.9,6.5-7.9,8.6-12.1c0.7-1.4,2.7-2.5,5.1-2.9l18.6-2.7
					c3.2-0.5,5.4-2.1,5.4-4l0.1-14.9c0-1.9-2.2-3.5-5.4-4l-18.7-2.7c-2.5-0.4-4.4-1.5-5.1-2.9c-2.1-4.2-5-8.2-8.7-12.1
					c-1.2-1.3-1.2-2.9,0.1-4.1l9.9-9.5c1.7-1.6,1.2-3.7-1.1-5l-18.2-10.5c-2.3-1.3-5.9-1.6-8.7-0.6l-16.4,5.7
					c-2.2,0.8-4.9,0.8-7.1,0.1c-6.7-2.1-13.8-3.8-21-5c-2.5-0.4-4.4-1.5-5-3l-4.6-10.7c-0.8-1.8-3.6-3.1-6.9-3.1h-25.8
					c-3.3,0-6.1,1.3-6.9,3.1l-4.6,10.7c-0.6,1.4-2.5,2.5-5,3c-7.2,1.2-14.2,2.9-20.9,5c-2.2,0.7-5,0.7-7.1-0.1l-16.5-5.7
					c-2.8-1-6.4-0.7-8.7,0.6l-18.2,10.5C316.4,229.5,316,231.5,317.7,233.2z M368.5,305.4c-28.2-16.2-28.3-42.8,0-59.1
					c28.2-16.3,74.1-16.3,102.3,0c28.2,16.3,28.2,42.8,0,59.1C442.6,321.7,396.7,321.7,368.5,305.4z"/>
			</g>
			<g>
				<g>
					<g>
						<rect x="360.6" y="173.4" transform="matrix(0.866 -0.5001 0.5001 0.866 -37.6439 213.8385)" width="39" height="7.4"/>
					</g>

						<radialGradient id="SVGID_8_" cx="391.3907" cy="578.0813" r="22.3728" gradientTransform="matrix(1 0 0 -1 0 740.2803)" gradientUnits="userSpaceOnUse">
						<stop  offset="0" style="stop-color:#FFFFFF"/>
						<stop  offset="0.1929" style="stop-color:#F4F7FB"/>
						<stop  offset="0.532" style="stop-color:#D6E3F0"/>
						<stop  offset="0.8678" style="stop-color:#B3CAE3"/>
						<stop  offset="1" style="stop-color:#99B5D4"/>
					</radialGradient>
					<path class="st24" d="M412.6,167c0.2,8.6-6.6,15.8-15.2,16c-8.6,0.2-15.8-6.6-16-15.2c-0.2-8.6,6.6-15.8,15.2-16
						C405.2,151.6,412.4,158.4,412.6,167z"/>

						<image style="overflow:visible;enable-background:new    ;" width="80" height="108" xlink:href="1B2537B3.png"  transform="matrix(1 0 0 1 386.1911 146.1401)">
					</image>

						<radialGradient id="SVGID_9_" cx="421.2086" cy="1697.5282" r="35.8179" gradientTransform="matrix(1 0 0 -1.1807 0 2187.8933)" gradientUnits="userSpaceOnUse">
						<stop  offset="6.390000e-02" style="stop-color:#0015FF"/>
						<stop  offset="0.1117" style="stop-color:#0013E2"/>
						<stop  offset="0.2078" style="stop-color:#000EAE"/>
						<stop  offset="0.3081" style="stop-color:#000A7F"/>
						<stop  offset="0.4103" style="stop-color:#000758"/>
						<stop  offset="0.5152" style="stop-color:#000538"/>
						<stop  offset="0.6234" style="stop-color:#00031F"/>
						<stop  offset="0.7364" style="stop-color:#00010E"/>
						<stop  offset="0.8573" style="stop-color:#000003"/>
						<stop  offset="1" style="stop-color:#000000"/>
					</radialGradient>
					<path class="st25" d="M403.4,213c1.2,0.9,3.1,1,4.2,0.1c1.8-1.5,8.9-9.9,8.7-18.1c-0.2-7.7-7-12.8-12.9-15.8
						c-5.5-2.8-11.5-5.1-12.1,2.9C390.6,190.2,398.9,209.7,403.4,213z"/>

						<radialGradient id="SVGID_10_" cx="409.166" cy="589.8441" r="69.7275" gradientTransform="matrix(1 0 0 -1 0 740.2803)" gradientUnits="userSpaceOnUse">
						<stop  offset="0" style="stop-color:#FFFFFF"/>
						<stop  offset="1" style="stop-color:#CCDAE8"/>
					</radialGradient>
					<circle class="st26" cx="425.2" cy="129.8" r="42"/>

						<linearGradient id="SVGID_11_" gradientUnits="userSpaceOnUse" x1="408.0251" y1="583.1364" x2="417.9071" y2="620.0164" gradientTransform="matrix(1 0 0 -1 0 740.2803)">
						<stop  offset="0" style="stop-color:#0232A6"/>
						<stop  offset="5.400000e-02" style="stop-color:#022D95"/>
						<stop  offset="0.2143" style="stop-color:#011F68"/>
						<stop  offset="0.3758" style="stop-color:#011442"/>
						<stop  offset="0.5358" style="stop-color:#000B25"/>
						<stop  offset="0.6941" style="stop-color:#000511"/>
						<stop  offset="0.8498" style="stop-color:#000104"/>
						<stop  offset="1" style="stop-color:#000000"/>
					</linearGradient>
					<path class="st27" d="M424.3,124.2c-24.8,0.6-36.5-11.6-37.2-12.2c-2.7,5.7-4.1,12.1-3.9,18.8c0.1,3.2,0.5,6.3,1.3,9.3
						c3.8,10.7,22.1,16.7,22.1,16.7c4.5,1.4,9,2.2,12.8,2.6c13.2,1.2,26.4-6.8,26.1-18.9C445.3,130.9,437.3,123.9,424.3,124.2z"/>
					<g>
						<rect x="462.4" y="186" transform="matrix(0.8727 -0.4883 0.4883 0.8727 -41.4508 253.8551)" width="7.4" height="40.8"/>
					</g>

						<linearGradient id="SVGID_12_" gradientUnits="userSpaceOnUse" x1="323.8587" y1="531.2082" x2="367.467" y2="556.3854" gradientTransform="matrix(1 0 0 -1 0 740.2803)">
						<stop  offset="0" style="stop-color:#FFFFFF"/>
						<stop  offset="0.3197" style="stop-color:#F8FBFD"/>
						<stop  offset="0.7672" style="stop-color:#E6F0F8"/>
						<stop  offset="1" style="stop-color:#DAE8F5"/>
					</linearGradient>
					<path class="st28" d="M367.4,183.9c-2-3.4-8.6-5.9-16.5-1.8c-9.6,4.9-22.7,19.1-25.5,22.5c-1.7,2.1-2.1,3.5-1.5,4.6
						c0.7,1,2,1.4,4.7,1c4.3-0.7,23.2-5.1,32.2-11C368.3,194.2,369.6,187.5,367.4,183.9z"/>

						<linearGradient id="SVGID_13_" gradientUnits="userSpaceOnUse" x1="461.0955" y1="472.8051" x2="478.312" y2="520.1069" gradientTransform="matrix(1 0 0 -1 0 740.2803)">
						<stop  offset="0" style="stop-color:#FFFFFF"/>
						<stop  offset="0.3197" style="stop-color:#F8FBFD"/>
						<stop  offset="0.7672" style="stop-color:#E6F0F8"/>
						<stop  offset="1" style="stop-color:#DAE8F5"/>
					</linearGradient>
					<path class="st29" d="M478.1,220.1c-3.7-1.3-10.3,1.1-13.7,9.4c-4.1,9.9-4.8,29.3-4.6,33.7c0.1,2.7,0.7,4,1.9,4.5
						c1.2,0.4,2.5-0.3,4.2-2.4c2.8-3.4,14.3-19,17.2-29.4C485.5,227.4,482.1,221.5,478.1,220.1z"/>

						<radialGradient id="SVGID_14_" cx="450.3643" cy="556.4442" r="22.5679" gradientTransform="matrix(1 0 0 -1 0 740.2803)" gradientUnits="userSpaceOnUse">
						<stop  offset="0" style="stop-color:#FFFFFF"/>
						<stop  offset="0.1929" style="stop-color:#F4F7FB"/>
						<stop  offset="0.532" style="stop-color:#D6E3F0"/>
						<stop  offset="0.8678" style="stop-color:#B3CAE3"/>
						<stop  offset="1" style="stop-color:#99B5D4"/>
					</radialGradient>
					<path class="st30" d="M471.7,188.2c0.2,8.6-6.6,15.8-15.2,16c-8.6,0.2-15.8-6.6-16-15.2c-0.2-8.6,6.6-15.8,15.2-16
						C464.3,172.8,471.5,179.6,471.7,188.2z"/>
				</g>
				<path d="M413,147.5c-0.8,0-1.7-0.2-2.5-0.6c-2.9-1.3-5-4.6-4.9-7.6c0.1-2.6,2-4.5,4.5-4.5c0.8,0,1.7,0.2,2.5,0.6
					c2.9,1.3,5,4.6,4.9,7.6C417.4,145.7,415.5,147.5,413,147.5z"/>
				<g>
					<g>
						<path d="M394.1,140.2c-0.8,0-1.7-0.2-2.5-0.6c-1.5-0.7-2.7-1.8-3.6-3.2c-0.9-1.4-1.4-2.9-1.3-4.4c0.1-2.6,2-4.5,4.5-4.5
							c0.8,0,1.7,0.2,2.5,0.6c1.5,0.7,2.7,1.8,3.6,3.2c0.9,1.4,1.4,2.9,1.3,4.4C398.5,138.4,396.6,140.2,394.1,140.2z"/>
						<path class="st31" d="M393.5,128.5c1.4,0.6,2.6,1.7,3.4,3c0.8,1.2,1.3,2.7,1.2,4c0,0,0,0.1,0,0.2c-0.1,1.2-0.5,2.1-1.2,2.8
							c-0.8,0.8-1.9,1.2-3.2,1.1c-0.7,0-1.5-0.2-2.2-0.6c-1.3-0.6-2.4-1.7-3.2-2.9c-0.8-1.3-1.3-2.7-1.2-4.1c0-0.2,0-0.5,0.1-0.7
							c0.2-1.4,1-2.5,2.2-3.1c0.5-0.3,1.2-0.4,1.9-0.4C392,128,392.7,128.2,393.5,128.5z"/>
						<path class="st32" d="M393.3,128.9c1.3,0.6,2.4,1.6,3.2,2.9c0.8,1.2,1.2,2.5,1.2,3.8c0,0,0,0.1,0,0.2c-0.1,1.1-0.5,2-1.2,2.6
							c-0.8,0.7-1.9,1-3.1,0.8c-0.6-0.1-1.3-0.3-1.9-0.6c-1.1-0.6-2.1-1.5-2.8-2.6c-0.8-1.2-1.2-2.5-1.2-3.8c0-0.2,0-0.4,0-0.6
							c0.2-1.3,0.9-2.3,1.9-2.9c0.5-0.2,1.1-0.4,1.7-0.4C391.9,128.4,392.6,128.6,393.3,128.9z"/>
						<path class="st33" d="M393.2,129.3c1.2,0.5,2.3,1.5,3,2.7c0.7,1.1,1.2,2.4,1.1,3.6c0,0,0,0.1,0,0.2c-0.1,1.1-0.5,1.9-1.2,2.4
							c-0.8,0.6-1.8,0.8-3,0.5c-0.5-0.1-1.1-0.3-1.6-0.6c-1-0.5-1.8-1.4-2.4-2.3c-0.7-1.1-1.1-2.3-1.1-3.4c0-0.2,0-0.4,0-0.6
							c0.1-1.2,0.8-2.2,1.7-2.6c0.5-0.2,1-0.4,1.5-0.3C391.9,128.9,392.5,129,393.2,129.3z"/>
						<path class="st34" d="M393,129.7c1.1,0.5,2.1,1.4,2.8,2.5c0.7,1.1,1.1,2.3,1.1,3.4c0,0,0,0.1,0,0.1c-0.1,1-0.5,1.8-1.2,2.2
							c-0.7,0.5-1.8,0.6-2.9,0.2c-0.5-0.1-0.9-0.3-1.3-0.6c-0.8-0.5-1.5-1.2-2-2c-0.6-1-1-2-1-3.1c0-0.2,0-0.4,0-0.5
							c0.1-1.1,0.7-2,1.5-2.4c0.4-0.2,0.9-0.3,1.4-0.3C391.8,129.3,392.4,129.4,393,129.7z"/>
						<path class="st35" d="M396.5,135.6c0,1.1-0.5,1.8-1.2,2.2s-1.7,0.4-2.8-0.1c-1.1-0.5-2-1.4-2.7-2.4s-1-2.2-1-3.2
							s0.5-1.8,1.2-2.2s1.7-0.4,2.8,0.1c1.1,0.5,2,1.4,2.7,2.4C396.1,133.4,396.5,134.6,396.5,135.6z"/>
					</g>
					<g>
						<path d="M413,147.5c-0.8,0-1.7-0.2-2.5-0.6c-1.5-0.7-2.7-1.8-3.6-3.2c-0.9-1.4-1.4-2.9-1.3-4.4c0.1-2.6,2-4.5,4.5-4.5
							c0.8,0,1.7,0.2,2.5,0.6c1.5,0.7,2.7,1.8,3.6,3.2c0.9,1.4,1.4,2.9,1.3,4.4C417.4,145.7,415.5,147.5,413,147.5z"/>
						<path class="st31" d="M412.4,135.8c1.4,0.6,2.6,1.7,3.4,3c0.8,1.2,1.3,2.7,1.2,4c0,0,0,0.1,0,0.2c-0.1,1.2-0.5,2.1-1.2,2.8
							c-0.8,0.8-1.9,1.2-3.2,1.1c-0.7,0-1.5-0.2-2.2-0.6c-1.3-0.6-2.4-1.7-3.2-2.9c-0.8-1.3-1.3-2.7-1.2-4.1c0-0.2,0-0.5,0.1-0.7
							c0.2-1.4,1-2.5,2.2-3.1c0.5-0.3,1.2-0.4,1.9-0.4C410.9,135.3,411.7,135.5,412.4,135.8z"/>
						<path class="st32" d="M412.3,136.2c1.3,0.6,2.4,1.6,3.2,2.9c0.8,1.2,1.2,2.5,1.2,3.8c0,0,0,0.1,0,0.2c-0.1,1.1-0.5,2-1.2,2.6
							c-0.8,0.7-1.9,1-3.1,0.8c-0.6-0.1-1.3-0.3-1.9-0.6c-1.1-0.6-2.1-1.5-2.8-2.6c-0.8-1.2-1.2-2.5-1.2-3.8c0-0.2,0-0.4,0-0.6
							c0.2-1.3,0.9-2.3,1.9-2.9c0.5-0.2,1.1-0.4,1.7-0.4C410.8,135.7,411.6,135.9,412.3,136.2z"/>
						<path class="st33" d="M412.1,136.6c1.2,0.5,2.3,1.5,3,2.7c0.7,1.1,1.2,2.4,1.1,3.6c0,0,0,0.1,0,0.2c-0.1,1.1-0.5,1.9-1.2,2.4
							c-0.8,0.6-1.8,0.8-3,0.5c-0.5-0.1-1.1-0.3-1.6-0.6c-1-0.5-1.8-1.4-2.4-2.3c-0.7-1.1-1.1-2.3-1.1-3.4c0-0.2,0-0.4,0-0.6
							c0.1-1.2,0.8-2.2,1.7-2.6c0.5-0.2,1-0.4,1.5-0.3C410.8,136.1,411.4,136.3,412.1,136.6z"/>
						<path class="st34" d="M411.9,137c1.1,0.5,2.1,1.4,2.8,2.5c0.7,1.1,1.1,2.3,1.1,3.4c0,0,0,0.1,0,0.1c-0.1,1-0.5,1.8-1.2,2.2
							c-0.7,0.5-1.8,0.6-2.9,0.2c-0.5-0.1-0.9-0.3-1.3-0.6c-0.8-0.5-1.5-1.2-2-2c-0.6-1-1-2-1-3.1c0-0.2,0-0.4,0-0.5
							c0.1-1.1,0.7-2,1.5-2.4c0.4-0.2,0.9-0.3,1.4-0.3C410.7,136.6,411.3,136.7,411.9,137z"/>
						<path class="st35" d="M415.4,142.9c0,1.1-0.5,1.8-1.2,2.2s-1.7,0.4-2.8-0.1c-1.1-0.5-2-1.4-2.7-2.4c-0.7-1-1-2.2-1-3.2
							s0.5-1.8,1.2-2.2s1.7-0.4,2.8,0.1c1.1,0.5,2,1.4,2.7,2.4C415.1,140.7,415.4,141.9,415.4,142.9z"/>
					</g>
				</g>
			</g>
		</g>
		<g>
			<g>
				<path class="st18" d="M160,489.1l-0.7-1.2l17.9-10.3l0.7,1.2L160,489.1z M183.9,475.4l-0.7-1.2l17.9-10.3l0.7,1.2L183.9,475.4z
					 M207.7,461.6l-0.7-1.2l17.9-10.3l0.7,1.2L207.7,461.6z M231.5,447.9l-0.7-1.2l17.9-10.3l0.7,1.2L231.5,447.9z M255.3,434.1
					l-0.7-1.2l17.9-10.3l0.7,1.2L255.3,434.1z M279.2,420.3l-0.7-1.2l4.7-2.7l0.7,1.2L279.2,420.3z"/>
			</g>
			<g>
				<path class="st19" d="M160,503.5l-0.7-1.2l17.9-10.3l0.7,1.2L160,503.5z M183.9,489.7l-0.7-1.2l17.9-10.3l0.7,1.2L183.9,489.7z
					 M207.7,476l-0.7-1.2l17.9-10.3l0.7,1.2L207.7,476z M231.5,462.2l-0.7-1.2l17.9-10.3l0.7,1.2L231.5,462.2z M255.3,448.5
					l-0.7-1.2l17.9-10.3l0.7,1.2L255.3,448.5z M279.2,434.7l-0.7-1.2l4.7-2.7l0.7,1.2L279.2,434.7z"/>
			</g>
		</g>
	</g>
	<g>

			<radialGradient id="SVGID_15_" cx="3181.4177" cy="649.9109" r="144.4618" gradientTransform="matrix(-0.9587 0.2844 -0.2844 -0.9587 3409.7471 208.0181)" gradientUnits="userSpaceOnUse">
			<stop  offset="1.074735e-03" style="stop-color:#21B4D9"/>
			<stop  offset="0.2443" style="stop-color:#21B1D9"/>
			<stop  offset="0.4163" style="stop-color:#21A8DA"/>
			<stop  offset="0.5664" style="stop-color:#2198DB"/>
			<stop  offset="0.7039" style="stop-color:#2182DD"/>
			<stop  offset="0.8328" style="stop-color:#2166DF"/>
			<stop  offset="0.9537" style="stop-color:#2143E2"/>
			<stop  offset="1" style="stop-color:#2134E3"/>
		</radialGradient>
		<path class="st36" d="M301.2,511l-3.4,109.3c-0.1,3.1-1.4,5.1-3.3,6l-13.4,7.6l-24.5-28.2l-200.2-124c-5-3.1-8.9-10.4-8.7-16.2
			l3-97.2l-9.5-11l13.2-7.2c13.1,4.8-49.2-34.3,238.1,144.9C297.7,498,301.3,505.6,301.2,511z"/>

			<radialGradient id="SVGID_16_" cx="3168.8669" cy="707.385" r="107.0175" gradientTransform="matrix(-0.9587 0.2844 -0.2844 -0.9587 3409.7471 208.0181)" gradientUnits="userSpaceOnUse">
			<stop  offset="1.074735e-03" style="stop-color:#21B4D9"/>
			<stop  offset="0.2443" style="stop-color:#21B1D9"/>
			<stop  offset="0.4163" style="stop-color:#21A8DA"/>
			<stop  offset="0.5664" style="stop-color:#2198DB"/>
			<stop  offset="0.7039" style="stop-color:#2182DD"/>
			<stop  offset="0.8328" style="stop-color:#2166DF"/>
			<stop  offset="0.9537" style="stop-color:#2143E2"/>
			<stop  offset="1" style="stop-color:#2134E3"/>
		</radialGradient>
		<path class="st37" d="M50.7,368.9l224.7,139.2c2,1.2,3.6,3.6,4.5,6.1l19.7-10.5c-1.5-3.7-4.1-7.1-7.1-9l-232-143.7
			c-2.2-1.3-4.3-1.6-5.9-1.1l-0.2-0.1l-13.2,7.2C52.1,369.7,50.7,367.8,50.7,368.9z"/>

			<linearGradient id="SVGID_17_" gradientUnits="userSpaceOnUse" x1="3064.9097" y1="649.8914" x2="3297.8093" y2="649.8914" gradientTransform="matrix(-0.9587 0.2844 -0.2844 -0.9587 3409.7471 208.0181)">
			<stop  offset="1.074735e-03" style="stop-color:#4FD0F0"/>
			<stop  offset="1" style="stop-color:#4E5DEB"/>
		</linearGradient>
		<path class="st38" d="M256.2,606.1L56.1,482.2c-5.2-3.2-9.2-10.7-9-16.8l3-97l-9.9-11.4c0.4-0.2,13.8-7.5,14.2-7.8l0.3,0.1
			c1.8-0.5,4-0.1,6.2,1.2l232,143.7c3.1,1.9,5.8,5.3,7.4,9.3c2.5,5.6,1.9-1.5-1.8,116.8c-0.1,3.2-1.4,5.6-3.6,6.5l-13.9,7.9
			L256.2,606.1z M54.4,350.6l-12.2,6.7l9.2,10.6l-3,97.5c-0.2,5.7,3.6,12.7,8.4,15.7L257,605l24.2,28l13-7.4
			c1.8-0.8,2.8-2.7,2.9-5.4l3.4-109.3c0.2-5.3-3.5-12.6-8.4-15.7C19,325,68.3,355.5,54.4,350.6z"/>
		<g>

				<linearGradient id="SVGID_18_" gradientUnits="userSpaceOnUse" x1="3080.2268" y1="648.5333" x2="3311.7256" y2="648.5333" gradientTransform="matrix(-0.9587 0.2844 -0.2844 -0.9587 3409.7471 208.0181)">
				<stop  offset="1.074735e-03" style="stop-color:#4FD0F0"/>
				<stop  offset="1" style="stop-color:#4E5DEB"/>
			</linearGradient>
			<path class="st39" d="M38,363.1c0.2-5.9,4.4-8.1,9.4-5l232,143.7c5,3.1,8.9,10.4,8.7,16.2l-3.4,109.2c-0.2,5.9-4.4,8.1-9.4,5
				l-232-143.7c-5-3.1-8.9-10.4-8.7-16.2L38,363.1z"/>

				<linearGradient id="SVGID_19_" gradientUnits="userSpaceOnUse" x1="3079.5732" y1="648.5314" x2="3312.3821" y2="648.5314" gradientTransform="matrix(-0.9587 0.2844 -0.2844 -0.9587 3409.7471 208.0181)">
				<stop  offset="1.074735e-03" style="stop-color:#4FD0F0"/>
				<stop  offset="1" style="stop-color:#4E5DEB"/>
			</linearGradient>
			<path class="st40" d="M43,489.2c-5.2-3.2-9.2-10.7-9-16.8l3.4-109.2c0.2-6.4,5-8.9,10.4-5.6l232,143.7c5.2,3.2,9.2,10.7,9,16.8
				l-3.4,109.2c-0.2,4.9-2.9,7.2-6,7.1C276.2,634.3,291.2,642.8,43,489.2z M38.6,363.2l-3.4,109.2c-0.2,5.7,3.6,12.7,8.4,15.7
				l232,143.7c4.7,2.9,8.2,0.7,8.4-4.5l3.4-109.2c0.2-5.7-3.6-12.7-8.4-15.7C31.2,348.8,46,357.5,43.3,357.4
				C40.2,357.3,38.7,360,38.6,363.2z"/>
		</g>
		<path class="st17" d="M47.3,482.3c-2.7-1.7-5.3-6.5-5.2-9.6l3.2-101.4c0.1-2.5,2.8-3.9,4.9-2.6l225.3,139.6c3,1.8,5.3,6.2,5.2,9.6
			l-3.1,101.3c-0.1,2.5-2.8,3.9-4.9,2.6L47.3,482.3z"/>
		<g>
			<g>
				<g>
					<path class="st9" d="M53.7,419.5c-0.2,6.7-0.4,12.2-0.6,19c-0.1,2,2.5,3.5,2.5,1.5c0.2-6.8,0.4-12.3,0.6-19
						C56.3,419,53.7,417.5,53.7,419.5z"/>
					<path class="st9" d="M61.4,401.6c-0.7-0.4-1.3-0.1-1.3,0.7c-0.7,20.8-1.2,38.7-1.9,60.4c-0.1,2,2.5,3.5,2.5,1.5
						C62.8,399.5,63.2,402.8,61.4,401.6z"/>
					<path class="st9" d="M65.6,414.2c-0.4,14-0.9,30.2-1.4,43.8c-0.1,2,2.5,3.5,2.5,1.5c0.4-12,0.9-29.5,1.4-43.8
						C68.2,413.8,65.7,412.3,65.6,414.2z"/>
					<path class="st9" d="M71.2,425.2c-0.3,10.1-0.6,18.5-0.9,29.1c-0.1,2,2.5,3.5,2.5,1.5c0.3-10.6,0.6-19,0.9-29.1
						C73.8,424.7,71.2,423.2,71.2,425.2z"/>
					<path class="st9" d="M79.1,401.4c-0.7-0.4-1.3-0.1-1.3,0.7c-0.9,28.4-1.6,52.7-2.5,82.3c-0.1,2,2.5,3.5,2.5,1.5
						C80.5,397.8,80.9,402.6,79.1,401.4z"/>
					<path class="st9" d="M85,400.8c-0.7-0.4-1.3-0.1-1.3,0.7c-1,31.3-1.8,58.1-2.8,90.7c-0.1,2,2.5,3.5,2.5,1.5
						C86.4,397.3,86.9,402,85,400.8z"/>
					<path class="st9" d="M90.3,418.8c-0.7-0.4-1.3-0.1-1.3,0.7c-0.7,21.4-1.2,39.8-1.9,61.8c-0.1,2,2.5,3.5,2.5,1.5
						C91.7,416.8,92.1,420,90.3,418.8z"/>
					<path class="st9" d="M94.4,435.4c-0.4,13.8-0.7,23.3-1.2,37.3c-0.1,2,2.5,3.5,2.5,1.5c0.7-22.6,0.5-14.7,1.2-37.3
						C97,435,94.5,433.4,94.4,435.4z"/>
					<path class="st9" d="M99.8,450.8c0,1.7-0.3,9.6-0.4,13.5c-0.1,2,2.5,3.5,2.5,1.5c0-1.2,0.4-12.3,0.4-13.5
						C102.4,450.4,99.9,448.9,99.8,450.8z"/>
					<path class="st9" d="M105.7,452.5c-0.2,6.1-0.3,11.4-0.5,17.4c-0.1,2,2.5,3.5,2.5,1.5c0.2-6,0.3-11.3,0.5-17.4
						C108.3,452.1,105.7,450.5,105.7,452.5z"/>
					<path class="st9" d="M111.6,450.4c-0.3,10.1-0.6,18.2-0.9,28.7c-0.1,2,2.5,3.5,2.5,1.5c0.3-10.3,0.6-18.6,0.9-28.7
						C114.2,450,111.7,448.5,111.6,450.4z"/>
					<path class="st9" d="M117.3,458.7c-0.2,6.8-0.4,12.5-0.6,19.3c-0.1,2,2.5,3.5,2.5,1.5c0.2-6.9,0.2-7.8,0.6-19.3
						C119.8,458.3,117.3,456.7,117.3,458.7z"/>
					<path class="st9" d="M122.9,466.4c-0.1,3.9-0.2,7.2-0.3,11.1c-0.1,2,2.5,3.5,2.5,1.5c0.1-3.9,0.2-7.2,0.3-11.1
						C125.5,466,123,464.5,122.9,466.4z"/>
					<path class="st9" d="M128.8,467.5c-0.2,5.7-0.3,10.4-0.5,16.1c-0.1,2,2.5,3.5,2.5,1.5c0.2-5.7,0.3-10.4,0.5-16.1
						C131.4,467.1,128.8,465.5,128.8,467.5z"/>
					<path class="st9" d="M134.7,466.3c-0.3,8.8-0.5,16.2-0.8,25.5c-0.1,2,2.5,3.5,2.5,1.5c0.3-9.3,0.5-16.6,0.8-25.5
						C137.3,465.9,134.8,464.4,134.7,466.3z"/>
					<path class="st9" d="M140.7,463c-0.4,13.8-0.8,25.7-1.2,39.3c-0.1,2,2.5,3.5,2.5,1.5c0.6-20.6,0.9-27.8,1.2-39.3
						C143.3,462.6,140.8,461.1,140.7,463z"/>
					<path class="st9" d="M146.7,461.1c-0.5,16.2-1.1,34.8-1.6,50.4c-0.1,2,2.5,3.5,2.5,1.5c0.5-14.9,1-32.4,1.6-50.4
						C149.2,460.7,146.7,459.1,146.7,461.1z"/>
					<path class="st9" d="M152.1,475.2c-0.3,10.2-0.6,18.6-0.9,29.3c-0.1,2,2.5,3.5,2.5,1.5c0.3-10.6,0.6-19.2,0.9-29.3
						C154.7,474.8,152.2,473.2,152.1,475.2z"/>
					<path class="st9" d="M157.5,490c-0.1,2.4-0.1,4.4-0.2,6.8c-0.1,2,2.5,3.5,2.5,1.5c0.1-2.4,0.1-4.4,0.2-6.8
						C160.1,489.6,157.6,488.1,157.5,490z"/>
					<path class="st9" d="M163.6,484c-0.3,9-0.5,16.5-0.8,26c-0.1,2,2.5,3.5,2.5,1.5c0.3-9.6,0.5-17,0.8-26
						C166.2,483.6,163.7,482,163.6,484z"/>
					<path class="st9" d="M169.7,477.2c-0.5,15-1,32.2-1.5,46.8c-0.1,2,2.5,3.5,2.5,1.5c0.5-14.5,1-31.7,1.5-46.8
						C172.3,476.8,169.8,475.2,169.7,477.2z"/>
					<path class="st9" d="M177.3,465.8c-0.7-0.4-1.3-0.1-1.3,0.7c-0.8,26.2-1.5,48.6-2.3,75.4c-0.1,2,2.5,3.5,2.5,1.5
						C178.7,461.7,179,466.9,177.3,465.8z"/>
					<path class="st9" d="M183.3,461.4c-0.7-0.4-1.3-0.1-1.3,0.7c-1,31.5-1.8,58.4-2.8,91.2c-0.1,2,2.5,3.5,2.5,1.5
						C184.7,458.2,185.2,462.6,183.3,461.4z"/>
					<path class="st9" d="M188.8,474.1c-0.7-0.4-1.3-0.1-1.3,0.7c-0.8,25.5-1.5,47.2-2.3,73.1c-0.1,2,2.5,3.5,2.5,1.5
						C190.2,470.4,190.6,475.2,188.8,474.1z"/>
					<path class="st9" d="M192.7,496.3c-0.4,13.2-0.7,23.1-1.2,37.3c-0.1,2,2.5,3.5,2.5,1.5c0.7-22.6,0.5-14.7,1.2-37.3
						C195.3,495.8,192.8,494.3,192.7,496.3z"/>
					<path class="st9" d="M198.2,507.7c-0.2,7.6-0.4,14.1-0.7,21.7c-0.1,2,2.5,3.5,2.5,1.5c0.2-7.5,0.4-14,0.7-21.7
						C200.8,507.2,198.3,505.7,198.2,507.7z"/>
					<path class="st9" d="M204.2,507c-0.6,18.3-0.6,19.8-0.9,30.1c-0.1,2,2.5,3.5,2.5,1.5c0.3-10.2,0.4-11.7,0.9-30.1
						C206.7,506.6,204.2,505.1,204.2,507z"/>
					<path class="st9" d="M210.1,504.9c-0.4,13.2-0.9,28.6-1.3,41.5c-0.1,2,2.5,3.5,2.5,1.5c0.4-12.9,0.9-28.2,1.3-41.5
						C212.7,504.5,210.2,503,210.1,504.9z"/>
					<path class="st9" d="M217.9,486.4c-0.7-0.4-1.3-0.1-1.3,0.7c-0.9,29.1-1.7,54-2.6,84.3c-0.1,2,2.5,3.5,2.5,1.5
						C219.3,482.5,219.6,487.5,217.9,486.4z"/>
					<path class="st9" d="M223.4,496.3c-0.7-0.4-1.3-0.1-1.3,0.7c-0.7,22.4-1.5,48.8-2.2,71.7c-0.1,2,2.5,3.5,2.5,1.5
						C224.8,493.4,225.2,497.4,223.4,496.3z"/>
					<path class="st9" d="M227,528.8c-0.2,5.3-0.3,9.7-0.5,15.2c-0.1,2,2.5,3.5,2.5,1.5c0.2-5.6,0.3-10.1,0.5-15.2
						C229.6,528.4,227.1,526.8,227,528.8z"/>
					<path class="st9" d="M235.1,500.9c-0.7-0.4-1.3-0.1-1.3,0.7c-0.8,26.6-1.5,49.5-2.4,76.7c-0.1,2,2.5,3.5,2.5,1.5
						C236.5,497.7,236.9,502,235.1,500.9z"/>
					<path class="st9" d="M241.2,492.9c-0.7-0.4-1.3-0.1-1.3,0.7c-1.1,36.5-1.9,60.9-3.1,98.9c-0.1,2,2.5,3.5,2.5,1.5
						C242.7,487.6,243,494,241.2,492.9z"/>
					<path class="st9" d="M244.7,531c-0.6,19.5-0.7,21.2-1,32.2c-0.1,2,2.5,3.5,2.5,1.5c0.3-11.1,0.4-12.7,1-32.2
						C247.2,530.6,244.7,529.1,244.7,531z"/>
					<path class="st9" d="M250.2,543.7c-0.1,2.2-0.3,10.7-0.4,14.1c-0.1,2,2.5,3.5,2.5,1.5c0.1-3.7,0.4-12,0.4-14.1
						C252.7,543.3,250.2,541.7,250.2,543.7z"/>
					<path class="st9" d="M256.1,542.1c-0.2,7.9-0.5,15.2-0.8,24.5c-0.1,2,2.4,3.5,2.5,1.5c0.3-9.2,0.5-16.5,0.8-24.5
						C258.7,541.6,256.2,540.1,256.1,542.1z"/>
					<path class="st9" d="M262.1,537.5c-0.4,13.1-0.9,28.2-1.3,40.8c-0.1,2,2.5,3.5,2.5,1.5c0.4-12.6,0.9-27.7,1.3-40.8
						C264.7,537.1,262.2,535.5,262.1,537.5z"/>
					<path class="st9" d="M269.4,532.9c-0.7-0.4-1.3-0.1-1.3,0.7c-0.6,19.2-1.1,35.8-1.7,55.6c-0.1,2,2.5,3.5,2.5,1.5
						C270.8,530.9,271.2,534,269.4,532.9z"/>
				</g>
				<g>
					<path class="st9" d="M53.7,419.5c-0.2,6.7-0.4,12.2-0.6,19c-0.1,2,2.5,3.5,2.5,1.5c0.2-6.8,0.4-12.3,0.6-19
						C56.3,419,53.7,417.5,53.7,419.5z"/>
					<path class="st9" d="M61.4,401.6c-0.7-0.4-1.3-0.1-1.3,0.7c-0.7,20.8-1.2,38.7-1.9,60.4c-0.1,2,2.5,3.5,2.5,1.5
						C62.8,399.5,63.2,402.8,61.4,401.6z"/>
					<path class="st9" d="M65.6,414.2c-0.4,14-0.9,30.2-1.4,43.8c-0.1,2,2.5,3.5,2.5,1.5c0.4-12,0.9-29.5,1.4-43.8
						C68.2,413.8,65.7,412.3,65.6,414.2z"/>
					<path class="st9" d="M71.2,425.2c-0.3,10.1-0.6,18.5-0.9,29.1c-0.1,2,2.5,3.5,2.5,1.5c0.3-10.6,0.6-19,0.9-29.1
						C73.8,424.7,71.2,423.2,71.2,425.2z"/>
					<path class="st9" d="M79.1,401.4c-0.7-0.4-1.3-0.1-1.3,0.7c-0.9,28.4-1.6,52.7-2.5,82.3c-0.1,2,2.5,3.5,2.5,1.5
						C80.5,397.8,80.9,402.6,79.1,401.4z"/>
					<path class="st9" d="M85,400.8c-0.7-0.4-1.3-0.1-1.3,0.7c-1,31.3-1.8,58.1-2.8,90.7c-0.1,2,2.5,3.5,2.5,1.5
						C86.4,397.3,86.9,402,85,400.8z"/>
					<path class="st9" d="M90.3,418.8c-0.7-0.4-1.3-0.1-1.3,0.7c-0.7,21.4-1.2,39.8-1.9,61.8c-0.1,2,2.5,3.5,2.5,1.5
						C91.7,416.8,92.1,420,90.3,418.8z"/>
					<path class="st9" d="M94.4,435.4c-0.4,13.8-0.7,23.3-1.2,37.3c-0.1,2,2.5,3.5,2.5,1.5c0.7-22.6,0.5-14.7,1.2-37.3
						C97,435,94.5,433.4,94.4,435.4z"/>
					<path class="st9" d="M99.8,450.8c0,1.7-0.3,9.6-0.4,13.5c-0.1,2,2.5,3.5,2.5,1.5c0-1.2,0.4-12.3,0.4-13.5
						C102.4,450.4,99.9,448.9,99.8,450.8z"/>
					<path class="st9" d="M105.7,452.5c-0.2,6.1-0.3,11.4-0.5,17.4c-0.1,2,2.5,3.5,2.5,1.5c0.2-6,0.3-11.3,0.5-17.4
						C108.3,452.1,105.7,450.5,105.7,452.5z"/>
					<path class="st9" d="M111.6,450.4c-0.3,10.1-0.6,18.2-0.9,28.7c-0.1,2,2.5,3.5,2.5,1.5c0.3-10.3,0.6-18.6,0.9-28.7
						C114.2,450,111.7,448.5,111.6,450.4z"/>
					<path class="st9" d="M117.3,458.7c-0.2,6.8-0.4,12.5-0.6,19.3c-0.1,2,2.5,3.5,2.5,1.5c0.2-6.9,0.2-7.8,0.6-19.3
						C119.8,458.3,117.3,456.7,117.3,458.7z"/>
					<path class="st9" d="M122.9,466.4c-0.1,3.9-0.2,7.2-0.3,11.1c-0.1,2,2.5,3.5,2.5,1.5c0.1-3.9,0.2-7.2,0.3-11.1
						C125.5,466,123,464.5,122.9,466.4z"/>
					<path class="st9" d="M128.8,467.5c-0.2,5.7-0.3,10.4-0.5,16.1c-0.1,2,2.5,3.5,2.5,1.5c0.2-5.7,0.3-10.4,0.5-16.1
						C131.4,467.1,128.8,465.5,128.8,467.5z"/>
					<path class="st9" d="M134.7,466.3c-0.3,8.8-0.5,16.2-0.8,25.5c-0.1,2,2.5,3.5,2.5,1.5c0.3-9.3,0.5-16.6,0.8-25.5
						C137.3,465.9,134.8,464.4,134.7,466.3z"/>
					<path class="st9" d="M140.7,463c-0.4,13.8-0.8,25.7-1.2,39.3c-0.1,2,2.5,3.5,2.5,1.5c0.6-20.6,0.9-27.8,1.2-39.3
						C143.3,462.6,140.8,461.1,140.7,463z"/>
					<path class="st9" d="M146.7,461.1c-0.5,16.2-1.1,34.8-1.6,50.4c-0.1,2,2.5,3.5,2.5,1.5c0.5-14.9,1-32.4,1.6-50.4
						C149.2,460.7,146.7,459.1,146.7,461.1z"/>
					<path class="st9" d="M152.1,475.2c-0.3,10.2-0.6,18.6-0.9,29.3c-0.1,2,2.5,3.5,2.5,1.5c0.3-10.6,0.6-19.2,0.9-29.3
						C154.7,474.8,152.2,473.2,152.1,475.2z"/>
					<path class="st9" d="M157.5,490c-0.1,2.4-0.1,4.4-0.2,6.8c-0.1,2,2.5,3.5,2.5,1.5c0.1-2.4,0.1-4.4,0.2-6.8
						C160.1,489.6,157.6,488.1,157.5,490z"/>
					<path class="st9" d="M163.6,484c-0.3,9-0.5,16.5-0.8,26c-0.1,2,2.5,3.5,2.5,1.5c0.3-9.6,0.5-17,0.8-26
						C166.2,483.6,163.7,482,163.6,484z"/>
					<path class="st9" d="M169.7,477.2c-0.5,15-1,32.2-1.5,46.8c-0.1,2,2.5,3.5,2.5,1.5c0.5-14.5,1-31.7,1.5-46.8
						C172.3,476.8,169.8,475.2,169.7,477.2z"/>
					<path class="st9" d="M177.3,465.8c-0.7-0.4-1.3-0.1-1.3,0.7c-0.8,26.2-1.5,48.6-2.3,75.4c-0.1,2,2.5,3.5,2.5,1.5
						C178.7,461.7,179,466.9,177.3,465.8z"/>
					<path class="st9" d="M183.3,461.4c-0.7-0.4-1.3-0.1-1.3,0.7c-1,31.5-1.8,58.4-2.8,91.2c-0.1,2,2.5,3.5,2.5,1.5
						C184.7,458.2,185.2,462.6,183.3,461.4z"/>
					<path class="st9" d="M188.8,474.1c-0.7-0.4-1.3-0.1-1.3,0.7c-0.8,25.5-1.5,47.2-2.3,73.1c-0.1,2,2.5,3.5,2.5,1.5
						C190.2,470.4,190.6,475.2,188.8,474.1z"/>
					<path class="st9" d="M192.7,496.3c-0.4,13.2-0.7,23.1-1.2,37.3c-0.1,2,2.5,3.5,2.5,1.5c0.7-22.6,0.5-14.7,1.2-37.3
						C195.3,495.8,192.8,494.3,192.7,496.3z"/>
					<path class="st9" d="M198.2,507.7c-0.2,7.6-0.4,14.1-0.7,21.7c-0.1,2,2.5,3.5,2.5,1.5c0.2-7.5,0.4-14,0.7-21.7
						C200.8,507.2,198.3,505.7,198.2,507.7z"/>
					<path class="st9" d="M204.2,507c-0.6,18.3-0.6,19.8-0.9,30.1c-0.1,2,2.5,3.5,2.5,1.5c0.3-10.2,0.4-11.7,0.9-30.1
						C206.7,506.6,204.2,505.1,204.2,507z"/>
					<path class="st9" d="M210.1,504.9c-0.4,13.2-0.9,28.6-1.3,41.5c-0.1,2,2.5,3.5,2.5,1.5c0.4-12.9,0.9-28.2,1.3-41.5
						C212.7,504.5,210.2,503,210.1,504.9z"/>
					<path class="st9" d="M217.9,486.4c-0.7-0.4-1.3-0.1-1.3,0.7c-0.9,29.1-1.7,54-2.6,84.3c-0.1,2,2.5,3.5,2.5,1.5
						C219.3,482.5,219.6,487.5,217.9,486.4z"/>
					<path class="st9" d="M223.4,496.3c-0.7-0.4-1.3-0.1-1.3,0.7c-0.7,22.4-1.5,48.8-2.2,71.7c-0.1,2,2.5,3.5,2.5,1.5
						C224.8,493.4,225.2,497.4,223.4,496.3z"/>
					<path class="st9" d="M227,528.8c-0.2,5.3-0.3,9.7-0.5,15.2c-0.1,2,2.5,3.5,2.5,1.5c0.2-5.6,0.3-10.1,0.5-15.2
						C229.6,528.4,227.1,526.8,227,528.8z"/>
					<path class="st9" d="M235.1,500.9c-0.7-0.4-1.3-0.1-1.3,0.7c-0.8,26.6-1.5,49.5-2.4,76.7c-0.1,2,2.5,3.5,2.5,1.5
						C236.5,497.7,236.9,502,235.1,500.9z"/>
					<path class="st9" d="M241.2,492.9c-0.7-0.4-1.3-0.1-1.3,0.7c-1.1,36.5-1.9,60.9-3.1,98.9c-0.1,2,2.5,3.5,2.5,1.5
						C242.7,487.6,243,494,241.2,492.9z"/>
					<path class="st9" d="M244.7,531c-0.6,19.5-0.7,21.2-1,32.2c-0.1,2,2.5,3.5,2.5,1.5c0.3-11.1,0.4-12.7,1-32.2
						C247.2,530.6,244.7,529.1,244.7,531z"/>
					<path class="st9" d="M250.2,543.7c-0.1,2.2-0.3,10.7-0.4,14.1c-0.1,2,2.5,3.5,2.5,1.5c0.1-3.7,0.4-12,0.4-14.1
						C252.7,543.3,250.2,541.7,250.2,543.7z"/>
					<path class="st9" d="M256.1,542.1c-0.2,7.9-0.5,15.2-0.8,24.5c-0.1,2,2.4,3.5,2.5,1.5c0.3-9.2,0.5-16.5,0.8-24.5
						C258.7,541.6,256.2,540.1,256.1,542.1z"/>
					<path class="st9" d="M262.1,537.5c-0.4,13.1-0.9,28.2-1.3,40.8c-0.1,2,2.5,3.5,2.5,1.5c0.4-12.6,0.9-27.7,1.3-40.8
						C264.7,537.1,262.2,535.5,262.1,537.5z"/>
					<path class="st9" d="M269.4,532.9c-0.7-0.4-1.3-0.1-1.3,0.7c-0.6,19.2-1.1,35.8-1.7,55.6c-0.1,2,2.5,3.5,2.5,1.5
						C270.8,530.9,271.2,534,269.4,532.9z"/>
				</g>
			</g>
		</g>
	</g>
</g>
</svg>
